<svg width="100%" height="100%" viewBox="0 0 1194 834" preserveAspectRatio="none" fill="none" xmlns="http://www.w3.org/2000/svg">
<g clip-path="url(#clip0_263_63430)">
<rect x="1194" y="834" width="1194" height="834" transform="rotate(-180 1194 834)" fill="#FFFFFF"/>
<path fill-rule="evenodd" clip-rule="evenodd" d="M61.767 128.33C135.154 133.869 175.915 214.052 232.105 261.537C280.059 302.061 339.205 330.827 367.612 386.791C396.592 443.882 397.218 509.888 390.482 573.546C383.543 639.116 368.654 704.894 328.418 757.16C286.867 811.135 228.375 851.547 162.634 869.518C97.5414 887.312 28.5579 878.396 -35.3 856.588C-97.2719 835.424 -148.554 794.852 -193.99 747.729C-241.508 698.444 -293.101 646.435 -303.183 578.751C-313.281 510.961 -279.404 445.937 -248.025 384.99C-217.855 326.39 -176.727 276.581 -125.953 234.515C-69.4584 187.71 -11.4184 122.807 61.767 128.33Z" fill="#DEEBFF"/>
<path fill-rule="evenodd" clip-rule="evenodd" d="M1209.73 -28.6982C1276.71 -23.6387 1313.91 49.6124 1365.19 92.9913C1408.96 130.012 1462.94 156.291 1488.86 207.416C1515.31 259.571 1515.88 319.871 1509.73 378.024C1503.4 437.925 1489.81 498.016 1453.09 545.763C1415.17 595.072 1361.79 631.99 1301.79 648.407C1242.38 664.663 1179.42 656.518 1121.14 636.595C1064.58 617.261 1017.78 580.197 976.314 537.148C932.946 492.124 885.86 444.611 876.658 382.779C867.442 320.851 898.36 261.448 926.998 205.771C954.533 152.237 992.069 106.735 1038.41 68.3061C1089.97 25.5476 1142.94 -33.7437 1209.73 -28.6982Z" fill="#DEEBFF"/>
<path fill-rule="evenodd" clip-rule="evenodd" d="M338.731 161.768C405.708 156.708 442.908 83.4569 494.19 40.0781C537.956 3.0574 591.936 -23.2214 617.862 -74.3465C644.31 -126.502 644.882 -186.801 638.734 -244.955C632.401 -304.856 618.812 -364.947 582.091 -412.694C544.169 -462.002 490.787 -498.92 430.788 -515.338C371.381 -531.594 308.423 -523.448 250.143 -503.526C193.584 -484.192 146.781 -447.128 105.314 -404.078C61.9458 -359.055 14.8601 -311.542 5.65815 -249.71C-3.55813 -187.781 27.3603 -128.379 55.998 -72.7014C83.5332 -19.1676 121.069 26.3346 167.408 64.7632C218.968 107.522 271.938 166.813 338.731 161.768Z" fill="#DEEBFF"/>
</g>
<rect x="1193.5" y="833.5" width="1193" height="833" transform="rotate(-180 1193.5 833.5)" stroke="#667080"/>
<defs>
<clipPath id="clip0_263_63430">
<rect x="1194" y="834" width="1194" height="834" transform="rotate(-180 1194 834)" fill="#FFFFFF"/>
</clipPath>
</defs>
</svg>
